<svg width="136" height="14" viewBox="0 0 136 14" fill="none" xmlns="http://www.w3.org/2000/svg">
<path fill-rule="evenodd" clip-rule="evenodd" d="M11.8102 8.77441C12.014 8.24641 12.1158 7.67691 12.1158 7.06441C12.1158 6.45241 12.014 5.88591 11.8102 5.36341C11.6064 4.84141 11.3218 4.39441 10.9557 4.02241C10.5902 3.65041 10.1592 3.35941 9.66228 3.14941C9.16437 2.93941 8.62203 2.83441 8.03473 2.83441H2.7311V11.3479H8.03473C8.62203 11.3479 9.16437 11.2404 9.66228 11.0244C10.1592 10.8074 10.5902 10.5119 10.9557 10.1334C11.3218 9.75491 11.6064 9.30291 11.8102 8.77441ZM12.6012 2.32991C13.1641 2.89441 13.6055 3.56941 13.9227 4.35541C14.2403 5.14191 14.3991 6.00791 14.3991 6.95591C14.3991 7.90441 14.2403 8.78641 13.9227 9.60141C13.6055 10.4179 13.1641 11.1229 12.6012 11.7179C12.0374 12.3104 11.3667 12.7794 10.5872 13.1209C9.8086 13.4634 8.95762 13.6349 8.03473 13.6349H0.46582V0.547908H8.03473C8.95762 0.547908 9.8086 0.703908 10.5872 1.01591C11.3667 1.32791 12.0374 1.76691 12.6012 2.32991ZM23.7573 0.566408C23.9311 0.698408 24.0835 0.878408 24.2158 1.10641L31.7482 13.6349H28.9976L27.0384 10.3399H20.8533L21.932 8.48641H25.9412L23.0287 3.59041L17.0963 13.6349H14.4895L22.0045 1.10641C22.1358 0.878408 22.2921 0.698408 22.4719 0.566408C22.6507 0.434408 22.8669 0.368408 23.1186 0.368408C23.3703 0.368408 23.5831 0.434408 23.7573 0.566408ZM41.7078 0.547908V2.83441H36.7463V13.6349H34.463V2.83441H29.5009V0.547908H41.7078ZM48.9266 0.566408C49.1004 0.698408 49.2527 0.878408 49.3851 1.10641L56.918 13.6349H54.1668L52.2077 10.3399H46.0236L47.1018 8.48641H51.1105L48.1985 3.59041L42.2651 13.6349H39.6593L47.1727 1.10641C47.3061 0.878408 47.4609 0.698408 47.6412 0.566408C47.8209 0.434408 48.0367 0.368408 48.2884 0.368408C48.5401 0.368408 48.7523 0.434408 48.9266 0.566408ZM71.1025 1.81741C71.51 2.21891 71.8211 2.70791 72.0369 3.28441C72.2536 3.86041 72.3615 4.50841 72.3615 5.22841C72.3615 5.93641 72.2536 6.58091 72.0369 7.16291C71.8211 7.74541 71.51 8.24641 71.1025 8.66591C70.696 9.08591 70.1956 9.41291 69.6013 9.64741C69.0085 9.88091 68.3343 9.99791 67.5797 9.99791H62.3295V7.78441H67.5797C68.3823 7.78441 69.0085 7.55691 69.458 7.09991C69.9074 6.64441 70.1322 6.04441 70.1322 5.30041C70.1322 4.54391 69.9074 3.94441 69.458 3.49991C69.0085 3.05691 68.3823 2.83441 67.5797 2.83441H60.6575V13.6349H58.3923V0.547908H67.5797C68.3343 0.547908 69.0085 0.659408 69.6013 0.881408C70.1956 1.10341 70.696 1.41491 71.1025 1.81741ZM74.5009 13.6884V0.547908H76.7832V13.6884H74.5009ZM85.0173 5.96591V0.547908H87.301V13.6884H85.0173V7.99991H78.4377V5.96591H85.0173ZM118.997 10.0164V0.440408H121.172V12.4284C121.172 12.8604 121.067 13.1964 120.856 13.4354C120.647 13.6759 120.374 13.7969 120.04 13.7969C119.668 13.7969 119.32 13.6339 118.997 13.3099L109.81 4.05841V13.6339H107.635V1.75491C107.635 1.33491 107.739 1.00191 107.949 0.755908C108.158 0.508908 108.443 0.386908 108.803 0.386908C108.971 0.386908 109.133 0.422908 109.288 0.494408C109.444 0.566408 109.605 0.686408 109.774 0.854408L118.997 10.0164ZM126.367 2.83441V11.3479H135.788V13.6349H124.102V0.547908H135.77V2.83441H126.367ZM128.04 7.94641V6.02041H135.285V7.94641H128.04ZM92.1367 5.35441C92.0463 5.58441 91.9789 5.82741 91.928 6.07891H89.5968C89.6652 5.45591 89.8055 4.87141 90.0253 4.32841C90.3419 3.53641 90.7859 2.86141 91.3547 2.30391C91.924 1.74541 92.5952 1.31341 93.3688 1.00691C94.1413 0.701408 94.9838 0.547908 95.8952 0.547908H98.2689V2.83441H95.8952C95.3069 2.83441 94.7646 2.93941 94.2672 3.14941C93.7708 3.35941 93.3413 3.65041 92.9827 4.02241C92.6227 4.39441 92.3405 4.83791 92.1367 5.35441ZM105.01 4.35541C105.321 5.14191 105.477 6.00791 105.477 6.95591C105.477 7.90441 105.318 8.78641 105 9.60141C104.683 10.4179 104.24 11.1229 103.67 11.7179C103.101 12.3104 102.427 12.7794 101.648 13.1209C100.869 13.4634 100.011 13.6349 99.0769 13.6349H95.8952C94.9838 13.6349 94.1413 13.4634 93.3688 13.1209C92.5952 12.7794 91.924 12.3104 91.3547 11.7179C90.7859 11.1229 90.3419 10.4179 90.0253 9.60141C89.797 9.01791 89.6527 8.39991 89.5883 7.74841H91.881C91.929 8.10541 92.0109 8.44891 92.1367 8.77441C92.3405 9.30291 92.6227 9.75491 92.9827 10.1334C93.3413 10.5119 93.7708 10.8074 94.2672 11.0244C94.7646 11.2404 95.3069 11.3479 95.8952 11.3479H99.0769C99.6757 11.3479 100.228 11.2404 100.731 11.0244C101.234 10.8074 101.668 10.5119 102.034 10.1334C102.399 9.75491 102.683 9.30291 102.888 8.77441C103.093 8.24641 103.194 7.67691 103.194 7.06441C103.194 6.45241 103.093 5.88591 102.888 5.36341C102.683 4.84141 102.399 4.39441 102.034 4.02241C101.668 3.65041 101.234 3.35941 100.731 3.14941C100.478 3.04391 100.214 2.96541 99.9369 2.91291V0.599408C100.554 0.665908 101.135 0.800908 101.674 1.01591C102.459 1.32791 103.135 1.76691 103.697 2.32991C104.261 2.89441 104.698 3.56941 105.01 4.35541Z" fill="#E2241B"/>
</svg>
