<svg width="104" height="104" viewBox="0 0 104 104" fill="none" xmlns="http://www.w3.org/2000/svg">
<path d="M0 0H104V104H0V0Z" fill="white"/>
<path fill-rule="evenodd" clip-rule="evenodd" d="M103.415 99.247C103.024 100.229 102.477 101.071 101.771 101.776C101.066 102.479 100.221 103.027 99.2374 103.417C98.2551 103.806 97.1707 104 95.9845 104H92V101.146H95.9845C96.7342 101.146 97.426 101.015 98.0564 100.753C98.6865 100.491 99.23 100.127 99.6883 99.6629C100.145 99.1983 100.502 98.6402 100.758 97.9888C100.998 97.3755 101.12 96.7124 101.135 96H104C104 97.1828 103.804 98.2658 103.415 99.247Z" fill="#FF0000"/>
<path d="M0 96C0 97.1828 0.195539 98.2658 0.585073 99.247C0.97615 100.229 1.52329 101.071 2.22926 101.776C2.934 102.479 3.77907 103.027 4.76231 103.417C5.74463 103.806 6.82934 104 8.01522 104H12V101.146H8.01522C7.26545 101.146 6.57397 101.015 5.94356 100.753C5.31346 100.491 4.77002 100.127 4.31171 99.6629C3.85494 99.1983 3.49841 98.6402 3.2418 97.9888C3.00154 97.3755 2.87941 96.7124 2.86491 96H0Z" fill="#FF0000"/>
<path d="M2.22926 2.22506C1.52329 2.9298 0.97615 3.77218 0.585073 4.75339C0.195539 5.73523 0 6.81742 0 8H2.86491C2.87941 7.28818 3.00154 6.625 3.2418 6.01201C3.49841 5.36022 3.85494 4.80234 4.31171 4.33775C4.77002 3.87316 5.31346 3.50985 5.94356 3.24784C6.57397 2.98553 7.26545 2.85438 8.01522 2.85438H12V0H8.01522C6.82934 0 5.74463 0.194579 4.76231 0.583434C3.77907 0.97352 2.934 1.52093 2.22926 2.22506Z" fill="#FF0000"/>
<path d="M104 8C104 6.81742 103.804 5.73523 103.415 4.75339C103.024 3.77218 102.477 2.9298 101.771 2.22506C101.066 1.52093 100.221 0.97352 99.2374 0.583434C98.2551 0.194579 97.1707 0 95.9845 0H92V2.85438H95.9845C96.7342 2.85438 97.426 2.98553 98.0564 3.24784C98.6865 3.50985 99.23 3.87316 99.6883 4.33775C100.145 4.80234 100.502 5.36022 100.758 6.01201C100.998 6.625 101.12 7.28818 101.135 8H104Z" fill="#FF0000"/>
<path fill-rule="evenodd" clip-rule="evenodd" d="M25.1265 28.7804C20.4369 29.1618 16.75 33.0886 16.75 37.8765V66.1235C16.75 70.9114 20.4369 74.8382 25.1265 75.2196V28.7804ZM26.6265 28.75V75.25H77.9441V28.75H26.6265ZM79.4441 28.7605V75.2395C84.3465 75.0078 88.25 70.9597 88.25 66V38C88.25 33.0403 84.3465 28.9922 79.4441 28.7605ZM15.25 37.8765C15.25 32.0076 20.0076 27.25 25.8765 27.25H79C84.9371 27.25 89.75 32.0629 89.75 38V66C89.75 71.9371 84.9371 76.75 79 76.75H25.8765C20.0076 76.75 15.25 71.9924 15.25 66.1235V37.8765ZM40.7943 42.5764C41.6395 42.2266 42.6073 42.157 43.6553 42.4053L43.6886 42.4132L43.721 42.4241C45.8105 43.1255 47.0984 44.3271 47.5332 45.9017C47.9569 47.4359 47.5117 49.1231 46.6009 50.6995C45.7428 52.1847 44.421 53.6641 42.8001 54.9769C44.3868 56.0531 46.5719 56.747 49.4705 56.6558C51.4645 56.593 53.1186 56.3459 54.4829 55.9746C54.1005 55.6184 53.7871 55.2281 53.5337 54.8111C52.7628 53.5422 52.6088 52.1243 52.6088 50.9189C52.6088 48.8069 53.335 47.1844 54.6175 46.2717C55.898 45.3605 57.5687 45.2746 59.2061 45.893C61.4252 46.7309 62.5444 49.8491 61.3474 52.6216C60.7706 53.9576 59.686 55.2009 57.9848 56.1706C58.0761 56.1965 58.1696 56.2215 58.2655 56.2457C60.2291 56.74 62.2908 56.8114 64.0218 56.6688C65.7441 56.5268 67.0308 56.1825 67.5561 55.9058C67.6467 55.8409 67.7573 55.769 67.8627 55.7007L67.9023 55.675C68.0273 55.594 68.1656 55.5043 68.3163 55.4021C68.6496 55.1763 69.0277 54.8996 69.3834 54.5724C70.1114 53.9026 70.6441 53.1159 70.6441 52.2162H72.1441C72.1441 53.7382 71.2455 54.8974 70.399 55.6763C69.9674 56.0734 69.5225 56.3967 69.1579 56.6438C68.9939 56.755 68.8429 56.8528 68.7188 56.9333L68.679 56.9591C68.5382 57.0504 68.4563 57.1047 68.4108 57.139L68.3698 57.17L68.325 57.1951C67.537 57.6359 65.9669 58.0135 64.145 58.1637C62.2904 58.3165 60.058 58.2438 57.8992 57.7003C57.2084 57.5263 56.6002 57.3057 56.0665 57.0451C54.3359 57.669 52.1726 58.0715 49.5177 58.155C46.0993 58.2626 43.4583 57.3706 41.542 55.9201C40 56.9898 38.2597 57.9009 36.4317 58.5452L35.933 57.1305C37.5267 56.5688 39.0382 55.7926 40.3873 54.8918C38.994 53.4346 38.1765 51.6595 37.8599 49.9179C37.485 47.8562 37.8014 45.7705 38.7838 44.2827C39.2796 43.5318 39.9524 42.925 40.7943 42.5764ZM41.616 54.0025C43.2166 52.7476 44.5032 51.3319 45.3021 49.9491C46.1089 48.5526 46.3615 47.2938 46.0874 46.301C45.826 45.3545 45.029 44.4533 43.2767 43.8573C42.5143 43.6827 41.8825 43.7494 41.368 43.9624C40.8429 44.1798 40.3919 44.5695 40.0355 45.1092C39.3137 46.2024 39.0128 47.8735 39.3357 49.6496C39.6149 51.1855 40.3528 52.7467 41.616 54.0025ZM56.1777 55.3929C58.3079 54.4859 59.4542 53.2223 59.9703 52.027C60.9203 49.8266 59.8925 47.7555 58.6762 47.2962C57.3865 46.8092 56.2661 46.9396 55.4872 47.4938C54.7103 48.0467 54.1088 49.1391 54.1088 50.9189C54.1088 52.0198 54.2554 53.1101 54.8157 54.0322C55.1116 54.5192 55.5411 54.9886 56.1777 55.3929ZM19.9735 47.8919V44.8649H21.4735V47.8919H19.9735ZM84.5971 55.6757H83.0971V48.7568H84.5971V55.6757ZM19.9735 59.1351V51.3514H21.4735V59.1351H19.9735ZM74.8294 64.2095H34.8941V62.7095H74.8294V64.2095Z" fill="black"/>
<path d="M26.4 62.4615L29.7 56.6923L33 62.4615L33 87.4615L33 90.7933C33 91.6173 32.6828 92.4096 32.1143 93.006C31.5091 93.6408 30.6704 94 29.7933 94L29.6067 94C28.7296 94 27.8909 93.6408 27.2857 93.006C26.7172 92.4096 26.4 91.6173 26.4 90.7933L26.4 89.7692L26.4 87.4615L26.4 62.4615Z" fill="white"/>
<path fill-rule="evenodd" clip-rule="evenodd" d="M29.7933 93.25C30.4652 93.25 31.1078 92.9748 31.5715 92.4885C32.007 92.0316 32.25 91.4246 32.25 90.7933L32.25 88.2115L27.15 88.2115L27.15 90.7933C27.15 91.4246 27.393 92.0316 27.8285 92.4885C28.2922 92.9748 28.9348 93.25 29.6067 93.25L29.7933 93.25ZM27.15 86.7115L32.25 86.7115L32.25 63.2115L27.15 63.2115L27.15 86.7115ZM27.693 61.7115L31.707 61.7115L29.7 58.2028L27.693 61.7115ZM30.45 56.493L33.75 62.2622L33.75 90.7933C33.75 91.81 33.3587 92.7876 32.6571 93.5235C31.9104 94.3068 30.8755 94.75 29.7933 94.75L29.6067 94.75C28.5245 94.75 27.4896 94.3068 26.7429 93.5235C26.0413 92.7876 25.65 91.81 25.65 90.7933L25.65 90.5192L22.75 90.5192L22.75 92.0769L21.25 92.0769L21.25 79.3846L22.75 79.3846L22.75 89.0192L25.65 89.0192L25.65 62.2622L28.95 56.493L28.95 54L30.45 54L30.45 56.493Z" fill="black"/>
</svg>
