<svg xmlns="http://www.w3.org/2000/svg" width="104" height="104" fill="none" viewBox="0 0 104 104">
    <path fill="#fff" d="M0 0h104v104H0V0z"/>
    <path fill="red" fill-rule="evenodd" d="M103.415 99.247c-.391.982-.938 1.824-1.644 2.529-.705.703-1.55 1.251-2.534 1.641-.982.389-2.066.583-3.252.583H92v-2.854h3.984c.75 0 1.442-.131 2.072-.393.63-.262 1.174-.626 1.632-1.09.457-.465.814-1.023 1.07-1.674.24-.614.362-1.277.377-1.989H104c0 1.183-.196 2.266-.585 3.247z" clip-rule="evenodd"/>
    <path fill="red" d="M0 96c0 1.183.196 2.266.585 3.247.391.982.938 1.824 1.644 2.529.705.703 1.55 1.251 2.533 1.641.983.389 2.067.583 3.253.583H12v-2.854H8.015c-.75 0-1.441-.131-2.071-.393-.63-.262-1.174-.626-1.632-1.09-.457-.465-.814-1.023-1.07-1.674-.24-.614-.363-1.277-.377-1.989H0zM2.23 2.225C1.522 2.93.975 3.772.584 4.753.195 5.735 0 6.817 0 8h2.865c.014-.712.137-1.375.377-1.988.256-.652.613-1.21 1.07-1.674.458-.465 1.001-.828 1.632-1.09.63-.262 1.321-.394 2.071-.394H12V0H8.015C6.83 0 5.745.195 4.762.583c-.983.39-1.828.938-2.533 1.642zM104 8c0-1.183-.196-2.265-.585-3.247-.391-.98-.938-1.823-1.644-2.528-.705-.704-1.55-1.251-2.534-1.642C98.255.195 97.171 0 95.985 0H92v2.854h3.984c.75 0 1.442.132 2.072.394.63.262 1.174.625 1.632 1.09.457.464.814 1.022 1.07 1.674.24.613.362 1.276.377 1.988H104z"/>
    <path fill="#000" fill-rule="evenodd" d="M52.318 29.228c-.402-.1-.646-.508-.545-.91l.727.182c-.727-.182-.728-.181-.727-.182v-.004l.002-.007.006-.02.018-.064c.015-.054.038-.129.07-.222.063-.185.16-.444.3-.751.282-.613.74-1.428 1.454-2.244 1.445-1.651 3.896-3.256 7.877-3.256s6.432 1.605 7.877 3.256c.714.816 1.172 1.63 1.453 2.244.141.307.238.566.301.751.032.093.055.168.07.222l.013.043.006.021.005.02.002.007v.003l-.727.183.728-.183c.1.402-.144.81-.546.91-.401.1-.808-.142-.909-.543v-.001l-.001-.005-.01-.035c-.01-.035-.027-.089-.051-.16-.049-.142-.127-.353-.244-.608-.235-.512-.62-1.197-1.219-1.881-1.18-1.349-3.23-2.744-6.748-2.744-3.519 0-5.568 1.395-6.748 2.744-.599.684-.984 1.37-1.219 1.881-.117.255-.195.466-.244.608-.024.071-.04.125-.05.16l-.01.035-.002.005c-.101.4-.508.645-.909.545zm2.919.974c-.388-.145-.585-.578-.44-.965l.703.263-.702-.263v-.002l.001-.002.002-.005.005-.014.019-.045c.015-.037.037-.088.066-.152.057-.126.143-.302.26-.51.233-.415.596-.966 1.114-1.52C57.311 25.871 59 24.75 61.5 24.75c2.493 0 4.293 1.113 5.452 2.204.578.544 1.002 1.087 1.283 1.496.141.205.247.378.319.502.036.062.064.112.083.148l.023.043.007.014.002.005.001.001s0 .002-.67.337l.67-.335c.186.37.036.82-.335 1.006-.37.185-.819.035-1.005-.334v-.001l-.014-.026-.06-.105c-.054-.095-.14-.235-.257-.405-.234-.341-.591-.798-1.075-1.254-.967-.91-2.417-1.796-4.424-1.796-1.998 0-3.311.879-4.14 1.763-.419.446-.713.894-.901 1.23-.095.167-.161.304-.203.396l-.045.102-.008.022v.001m-.966.438c.387.146.82-.05.965-.438l-.965.438zm2.428.969c-.37-.185-.521-.636-.336-1.006L58 30.5l-.67-.335v-.003l.003-.004.005-.01.014-.028.05-.087c.042-.07.102-.167.181-.279.16-.224.4-.52.731-.815.67-.595 1.717-1.189 3.186-1.189 1.47 0 2.516.594 3.186 1.19.332.295.572.59.73.814.08.112.14.208.182.28l.05.086.014.028.005.01.002.004.001.001s0 .002-.67.337l.67-.335c.186.37.036.82-.335 1.006-.368.184-.817.036-1.003-.331l-.003-.005-.023-.04c-.023-.039-.06-.099-.113-.174-.107-.15-.273-.356-.504-.56-.454-.405-1.158-.811-2.189-.811-1.03 0-1.734.406-2.19.81-.23.205-.396.41-.503.561-.053.075-.09.135-.113.174l-.023.04-.002.005c-.187.367-.635.515-1.004.33zm6.666-.333zM47.75 72.5V44c0-3.176 2.574-5.75 5.75-5.75h16c3.175 0 5.75 2.574 5.75 5.75v28.5c0 3.176-2.575 5.75-5.75 5.75h-16c-3.176 0-5.75-2.574-5.75-5.75zm1.5-28.5v28.5c0 2.347 1.902 4.25 4.25 4.25h16c2.346 0 4.25-1.903 4.25-4.25V44c0-2.347-1.904-4.25-4.25-4.25h-16c-2.348 0-4.25 1.903-4.25 4.25zm19.945-26.5H53.804c-4.694 0-8.5 3.806-8.5 8.5v46c0 4.694 3.806 8.5 8.5 8.5h15.392c4.694 0 8.5-3.806 8.5-8.5V26c0-4.694-3.806-8.5-8.5-8.5zM53.804 16c-5.522 0-10 4.477-10 10v46c0 5.523 4.478 10 10 10h15.392c5.523 0 10-4.477 10-10V26c0-5.523-4.477-10-10-10H53.804z" clip-rule="evenodd"/>
    <path fill="#fff" d="M58 71.5C58 80.613 50.613 88 41.5 88S25 80.613 25 71.5 32.387 55 41.5 55 58 62.387 58 71.5z"/>
    <path fill="#000" fill-rule="evenodd" d="M41.5 86.5c8.284 0 15-6.716 15-15 0-8.284-6.716-15-15-15-8.284 0-15 6.716-15 15 0 8.284 6.716 15 15 15zm0 1.5C50.613 88 58 80.613 58 71.5S50.613 55 41.5 55 25 62.387 25 71.5 32.387 88 41.5 88z" clip-rule="evenodd"/>
    <path fill="#000" fill-rule="evenodd" d="M38.046 65.608c0-.967.784-1.75 1.75-1.75h3.926c2.07 0 3.75 1.679 3.75 3.75v.293c0 2.07-1.68 3.75-3.75 3.75h-4.176v2.096h4.827c.415 0 .75.335.75.75 0 .414-.335.75-.75.75h-4.827v3.145c0 .415-.336.75-.75.75s-.75-.335-.75-.75v-3.145h-2.185c-.414 0-.75-.336-.75-.75 0-.415.336-.75.75-.75h2.185V71.65h-2.185c-.414 0-.75-.336-.75-.75s.336-.75.75-.75h2.185v-4.543zm1.5 4.543h4.176c1.242 0 2.25-1.008 2.25-2.25v-.293c0-1.243-1.008-2.25-2.25-2.25h-3.926c-.138 0-.25.111-.25.25v4.543z" clip-rule="evenodd"/>
</svg>
