<svg xmlns="http://www.w3.org/2000/svg" width="104" height="104" fill="none" viewBox="0 0 104 104">
    <path fill="#fff" d="M0 0h104v104H0V0z"/>
    <path fill="red" fill-rule="evenodd" d="M103.415 99.247c-.391.982-.938 1.824-1.644 2.529-.705.703-1.55 1.251-2.534 1.641-.982.389-2.066.583-3.252.583H92v-2.854h3.984c.75 0 1.442-.131 2.072-.393.63-.262 1.174-.626 1.632-1.09.457-.465.814-1.023 1.07-1.674.24-.614.362-1.277.377-1.989H104c0 1.183-.196 2.266-.585 3.247z" clip-rule="evenodd"/>
    <path fill="red" d="M0 96c0 1.183.196 2.266.585 3.247.391.982.938 1.824 1.644 2.529.705.703 1.55 1.251 2.533 1.641.983.389 2.067.583 3.253.583H12v-2.854H8.015c-.75 0-1.441-.131-2.071-.393-.63-.262-1.174-.626-1.632-1.09-.457-.465-.814-1.023-1.07-1.674-.24-.614-.363-1.277-.377-1.989H0zM2.23 2.225C1.522 2.93.975 3.772.584 4.753.195 5.735 0 6.817 0 8h2.865c.014-.712.137-1.375.377-1.988.256-.652.613-1.21 1.07-1.674.458-.465 1.001-.828 1.632-1.09.63-.262 1.321-.394 2.071-.394H12V0H8.015C6.83 0 5.745.195 4.762.583c-.983.39-1.828.938-2.533 1.642zM104 8c0-1.183-.196-2.265-.585-3.247-.391-.98-.938-1.823-1.644-2.528-.705-.704-1.55-1.251-2.534-1.642C98.255.195 97.171 0 95.985 0H92v2.854h3.984c.75 0 1.442.132 2.072.394.63.262 1.174.625 1.632 1.09.457.464.814 1.022 1.07 1.674.24.613.362 1.276.377 1.988H104z"/>
    <path fill="#000" fill-rule="evenodd" d="M52.407 16.37c-.248-.16-.566-.16-.814 0l-33 21.333c-.28.181-.406.524-.312.843.094.319.387.537.72.537h3.178v21.443c.468-.526.969-1.02 1.5-1.482v-19.96h10.285v15.924c.178-.005.357-.008.536-.008.324 0 .645.01.964.028V39.083h9.5v19.66c.529.433 1.03.9 1.5 1.395V39.083h9.5V80.25h-7.472c-.326.52-.68 1.02-1.061 1.5H85c.414 0 .75-.336.75-.75s-.336-.75-.75-.75h-3.964V39.083H85c.332 0 .625-.218.72-.537.094-.32-.034-.662-.313-.843l-33-21.333zM21.57 81.75c-.38-.48-.734-.98-1.06-1.5H19c-.414 0-.75.336-.75.75s.336.75.75.75h2.57zm35.895-1.5V39.083H67.75V80.25H57.464zm11.786 0V39.083h10.286V80.25H69.25zM22.93 37.583h-1.387L52 17.893l30.458 19.69H22.93z" clip-rule="evenodd"/>
    <path fill="#000" fill-rule="evenodd" d="M34.5 86.5c8.284 0 15-6.716 15-15 0-8.284-6.716-15-15-15-8.284 0-15 6.716-15 15 0 8.284 6.716 15 15 15zm0 1.5C43.613 88 51 80.613 51 71.5S43.613 55 34.5 55 18 62.387 18 71.5 25.387 88 34.5 88z" clip-rule="evenodd"/>
    <path fill="#000" fill-rule="evenodd" d="M43.987 66.727c.293.293.293.768 0 1.06l-9.9 9.9c-.293.293-.767.293-1.06 0l-6.129-6.128c-.293-.293-.293-.768 0-1.06.293-.294.768-.294 1.06 0l5.599 5.598 9.37-9.37c.293-.293.767-.293 1.06 0z" clip-rule="evenodd"/>
</svg>
