<svg xmlns="http://www.w3.org/2000/svg" width="104" height="104" fill="none" viewBox="0 0 104 104">
    <path fill="#fff" d="M0 0h104v104H0V0z"/>
    <path fill="red" fill-rule="evenodd" d="M103.415 99.247c-.391.982-.938 1.824-1.644 2.529-.705.703-1.55 1.251-2.534 1.641-.982.389-2.066.583-3.252.583H92v-2.854h3.984c.75 0 1.442-.131 2.072-.393.63-.262 1.174-.626 1.632-1.09.457-.465.814-1.023 1.07-1.674.24-.614.362-1.277.377-1.989H104c0 1.183-.196 2.266-.585 3.247z" clip-rule="evenodd"/>
    <path fill="red" d="M0 96c0 1.183.196 2.266.585 3.247.391.982.938 1.824 1.644 2.529.705.703 1.55 1.251 2.533 1.641.983.389 2.067.583 3.253.583H12v-2.854H8.015c-.75 0-1.441-.131-2.071-.393-.63-.262-1.174-.626-1.632-1.09-.457-.465-.814-1.023-1.07-1.674-.24-.614-.363-1.277-.377-1.989H0zM2.23 2.225C1.522 2.93.975 3.772.584 4.753.195 5.735 0 6.817 0 8h2.865c.014-.712.137-1.375.377-1.988.256-.652.613-1.21 1.07-1.674.458-.465 1.001-.828 1.632-1.09.63-.262 1.321-.394 2.071-.394H12V0H8.015C6.83 0 5.745.195 4.762.583c-.983.39-1.828.938-2.533 1.642zM104 8c0-1.183-.196-2.265-.585-3.247-.391-.98-.938-1.823-1.644-2.528-.705-.704-1.55-1.251-2.534-1.642C98.255.195 97.171 0 95.985 0H92v2.854h3.984c.75 0 1.442.132 2.072.394.63.262 1.174.625 1.632 1.09.457.464.814 1.022 1.07 1.674.24.613.362 1.276.377 1.988H104z"/>
    <path fill="#000" fill-rule="evenodd" d="M69.196 17.5H53.804c-4.694 0-8.5 3.806-8.5 8.5v46c0 4.694 3.806 8.5 8.5 8.5h15.392c4.694 0 8.5-3.806 8.5-8.5V26c0-4.694-3.806-8.5-8.5-8.5zM53.804 16c-5.522 0-10 4.477-10 10v46c0 5.523 4.478 10 10 10h15.392c5.523 0 10-4.477 10-10V26c0-5.523-4.477-10-10-10H53.804z" clip-rule="evenodd"/>
    <path fill="#000" fill-rule="evenodd" d="M69.37 39.5H53.63c-2.485 0-4.5 2.015-4.5 4.5v28.174c0 2.485 2.015 4.5 4.5 4.5h15.74c2.485 0 4.5-2.015 4.5-4.5V44c0-2.485-2.015-4.5-4.5-4.5zM53.63 38c-3.313 0-6 2.686-6 6v28.174c0 3.314 2.687 6 6 6h15.74c3.313 0 6-2.686 6-6V44c0-3.314-2.687-6-6-6H53.63zM53.112 28.706c-.149.386-.583.578-.97.428-.386-.149-.578-.583-.429-.97l.7.27-.7-.27.001-.001v-.002l.003-.006.008-.018.025-.06c.021-.051.052-.121.093-.209.083-.175.206-.419.376-.709.34-.58.868-1.35 1.627-2.12 1.527-1.551 3.983-3.093 7.654-3.093 3.67 0 6.127 1.542 7.654 3.093.76.77 1.287 1.54 1.627 2.12.17.29.293.534.376.71.04.087.072.157.093.207l.025.06.008.019.002.006v.002h.001c0 .001 0 .002-.699.272l.7-.27c.149.386-.044.82-.43.97-.386.148-.82-.043-.97-.43m0 0l-.002-.005-.015-.036c-.014-.034-.037-.086-.07-.156-.066-.139-.169-.343-.314-.59-.29-.498-.746-1.162-1.4-1.826-1.299-1.319-3.386-2.646-6.586-2.646s-5.287 1.327-6.586 2.645c-.654.665-1.11 1.33-1.4 1.826-.145.248-.248.452-.314.591-.033.07-.056.123-.07.156l-.015.036-.003.006" clip-rule="evenodd"/>
    <path fill="#000" fill-rule="evenodd" d="M55.98 29.668c-.153.385-.589.573-.974.42-.385-.152-.573-.588-.42-.973l.677.269c-.678-.269-.677-.27-.677-.27v-.003l.003-.005.006-.014c.004-.011.01-.026.019-.044.016-.037.038-.086.068-.148.06-.123.148-.292.268-.493.241-.4.614-.931 1.151-1.462 1.083-1.072 2.82-2.13 5.4-2.13 2.578 0 4.315 1.058 5.398 2.13.537.531.91 1.062 1.15 1.462.121.2.21.37.27.493.029.062.052.111.067.148l.02.044.005.014.002.005.001.002v.001l-.665.265.666-.264c.152.385-.036.82-.421.974-.384.152-.82-.035-.973-.419v-.002l.697-.277-.698.277.001.002v-.002l-.009-.02-.044-.094c-.042-.087-.109-.216-.204-.374-.19-.317-.49-.743-.92-1.169-.85-.84-2.222-1.696-4.344-1.696-2.122 0-3.494.855-4.344 1.696-.43.426-.73.852-.92 1.169-.095.158-.162.287-.204.374l-.044.095-.008.02zm0 0l-.001.002v-.002z" clip-rule="evenodd"/>
    <path fill="#000" fill-rule="evenodd" d="M58.842 30.643l-.003.005.002-.002.016-.034c.018-.033.048-.087.092-.155.089-.137.23-.325.435-.513.4-.368 1.06-.76 2.116-.76 1.055 0 1.716.392 2.116.76.205.188.347.376.435.512.044.069.074.123.092.156l.017.034v.002-.003l-.001-.001v-.001l.689-.295-.69.294m.003.006c.165.377.602.551.981.39.381-.163.558-.604.396-.985l-.677.29.676-.29v-.003l-.003-.004-.004-.01-.013-.03c-.011-.022-.025-.052-.044-.087-.037-.071-.09-.166-.163-.278-.143-.221-.364-.512-.68-.802-.64-.59-1.654-1.154-3.13-1.154s-2.489.565-3.13 1.154c-.316.29-.536.58-.68.802-.072.112-.126.207-.163.278-.018.035-.033.065-.043.088l-.014.029-.004.01-.002.004v.002h-.001l.69.296-.69-.295c-.163.381.014.822.395.985.379.161.817-.013.981-.39v.001l.001-.002v-.002l.002-.001v-.001" clip-rule="evenodd"/>
    <path fill="#fff" d="M26 56h39c1.657 0 3 1.343 3 3v25c0 1.657-1.343 3-3 3H26c-1.657 0-3-1.343-3-3V59c0-1.657 1.343-3 3-3z"/>
    <path fill="#000" fill-rule="evenodd" d="M22.25 59c0-2.071 1.679-3.75 3.75-3.75h39c2.071 0 3.75 1.679 3.75 3.75v25c0 2.071-1.679 3.75-3.75 3.75H26c-2.071 0-3.75-1.679-3.75-3.75V59zM26 56.75c-1.243 0-2.25 1.007-2.25 2.25v4.408h43.5V59c0-1.243-1.007-2.25-2.25-2.25H26zm41.25 8.158h-43.5v5.842h43.5v-5.842zm0 7.342h-43.5V84c0 1.243 1.007 2.25 2.25 2.25h39c1.243 0 2.25-1.007 2.25-2.25V72.25z" clip-rule="evenodd"/>
</svg>
