<svg width="1215" height="120" viewBox="0 0 1215 120" fill="none" xmlns="http://www.w3.org/2000/svg">
<path fill-rule="evenodd" clip-rule="evenodd" d="M102.007 75.1178C103.835 70.3995 104.749 65.3103 104.749 59.8369C104.749 54.3679 103.835 49.3056 102.007 44.6364C100.179 39.9717 97.6255 35.9772 94.3415 32.6529C91.062 29.3287 87.1956 26.7282 82.7378 24.8516C78.271 22.975 73.4055 22.0367 68.1368 22.0367H20.5571V98.1152H68.1368C73.4055 98.1152 78.271 97.1546 82.7378 95.2243C87.1956 93.2852 91.062 90.6445 94.3415 87.2622C97.6255 83.8798 100.179 79.8406 102.007 75.1178ZM109.104 17.5284C114.153 22.5729 118.113 28.6048 120.958 35.6287C123.808 42.657 125.232 50.3958 125.232 58.8673C125.232 67.3433 123.808 75.2251 120.958 82.5081C118.113 89.8045 114.153 96.1045 109.104 101.422C104.046 106.716 98.0287 110.907 91.0351 113.959C84.0505 117.02 76.4162 118.552 68.1368 118.552H0.234863V1.60405H68.1368C76.4162 1.60405 84.0505 2.9981 91.0351 5.7862C98.0287 8.5743 104.046 12.4973 109.104 17.5284ZM209.187 1.76937C210.746 2.94895 212.113 4.55747 213.3 6.59493L280.875 118.552H256.198L238.622 89.1075H183.135L192.812 72.5442H228.779L202.65 28.7925L149.43 118.552H126.043L193.461 6.59493C194.64 4.55747 196.042 2.94895 197.655 1.76937C199.259 0.58979 201.199 0 203.457 0C205.715 0 207.623 0.58979 209.187 1.76937ZM370.223 1.60405V22.0367H325.713V118.552H305.229V22.0367H260.714V1.60405H370.223ZM434.985 1.76937C436.544 2.94895 437.91 4.55747 439.097 6.59493L506.677 118.552H481.995L464.42 89.1075H408.941L418.614 72.5442H454.577L428.452 28.7925L375.223 118.552H351.846L419.25 6.59493C420.446 4.55747 421.835 2.94895 423.453 1.76937C425.065 0.58979 427.001 0 429.259 0C431.517 0 433.421 0.58979 434.985 1.76937ZM633.928 12.9486C637.584 16.5365 640.375 20.9063 642.31 26.058C644.255 31.2053 645.223 36.9959 645.223 43.43C645.223 49.7569 644.255 55.5163 642.31 60.7171C640.375 65.9225 637.584 70.3995 633.928 74.1483C630.281 77.9015 625.792 80.8236 620.46 82.9192C615.142 85.0058 609.094 86.0513 602.325 86.0513H555.224V66.271H602.325C609.524 66.271 615.142 64.238 619.175 60.1541C623.207 56.0837 625.223 50.722 625.223 44.0734C625.223 37.3132 623.207 31.9559 619.175 27.9838C615.142 24.025 609.524 22.0367 602.325 22.0367H540.225V118.552H519.902V1.60405H602.325C609.094 1.60405 615.142 2.60044 620.46 4.58428C625.792 6.56812 630.281 9.35175 633.928 12.9486ZM664.416 119.03V1.60405H684.89V119.03H664.416ZM758.76 50.0205V1.60405H779.248V119.03H758.76V68.1967H699.733V50.0205H758.76ZM1063.6 86.2166V0.643408H1083.11V107.771C1083.11 111.631 1082.17 114.634 1080.28 116.77C1078.4 118.919 1075.95 120 1072.95 120C1069.62 120 1066.5 118.543 1063.6 115.648L981.179 32.9746V118.543H961.664V12.3901C961.664 8.63685 962.6 5.66109 964.482 3.46278C966.363 1.25554 968.913 0.16532 972.147 0.16532C973.653 0.16532 975.104 0.487024 976.498 1.12596C977.895 1.76937 979.342 2.84172 980.857 4.343L1063.6 86.2166ZM1129.72 22.0367V98.1152H1214.23V118.552H1109.4V1.60405H1214.07V22.0367H1129.72ZM1144.72 67.7187V50.5075H1209.72V67.7187H1144.72ZM822.629 44.556C821.819 46.6113 821.214 48.7828 820.757 51.0303H799.843C800.457 45.463 801.716 40.2398 803.687 35.3874C806.528 28.3099 810.511 22.278 815.614 17.296C820.721 12.3052 826.742 8.44473 833.682 5.70577C840.613 2.97576 848.171 1.60405 856.348 1.60405H877.642V22.0367H856.348C851.07 22.0367 846.204 22.975 841.742 24.8516C837.289 26.7282 833.436 29.3287 830.219 32.6529C826.989 35.9772 824.457 39.9404 822.629 44.556ZM938.116 35.6287C940.911 42.657 942.309 50.3958 942.309 58.8673C942.309 67.3433 940.884 75.2251 938.031 82.5081C935.186 89.8045 931.207 96.1045 926.095 101.422C920.992 106.716 914.949 110.907 907.955 113.959C900.966 117.02 893.273 118.552 884.891 118.552H856.348C848.171 118.552 840.613 117.02 833.682 113.959C826.742 110.907 820.721 106.716 815.614 101.422C810.511 96.1045 806.528 89.8045 803.687 82.5081C801.64 77.2938 800.345 71.7712 799.767 65.9493H820.336C820.766 69.1395 821.5 72.2091 822.629 75.1178C824.457 79.8406 826.989 83.8798 830.219 87.2622C833.436 90.6445 837.289 93.2852 841.742 95.2243C846.204 97.1546 851.07 98.1152 856.348 98.1152H884.891C890.263 98.1152 895.213 97.1546 899.729 95.2243C904.245 93.2852 908.139 90.6445 911.423 87.2622C914.693 83.8798 917.238 79.8406 919.084 75.1178C920.916 70.3995 921.826 65.3103 921.826 59.8369C921.826 54.3679 920.916 49.3056 919.084 44.6364C917.238 39.9717 914.693 35.9772 911.423 32.6529C908.139 29.3287 904.245 26.7282 899.729 24.8516C897.462 23.9088 895.092 23.2074 892.606 22.7382V2.06427C898.139 2.65852 903.354 3.86491 908.192 5.7862C915.235 8.5743 921.292 12.4973 926.342 17.5284C931.395 22.5729 935.316 28.6048 938.116 35.6287Z" fill="#F2F2F2"/>
</svg>
