<svg xmlns="http://www.w3.org/2000/svg" width="18" height="20" fill="none" viewBox="0 0 18 20">
    <g fill="#BEBFBE" clip-path="url(#prefix__clip0)">
        <path fill-rule="evenodd" d="M13.247.707c.982.39 1.824.938 2.529 1.644.703.705 1.25 1.55 1.641 2.534.39.982.583 2.066.583 3.253v3.984h-2.854V8.138c0-.75-.131-1.442-.393-2.072-.262-.63-.626-1.174-1.09-1.632-.465-.457-1.023-.814-1.674-1.07-.614-.24-1.277-.362-1.989-.377V.122c1.183 0 2.266.196 3.247.585z" clip-rule="evenodd"/>
        <path d="M10 19.122c1.183 0 2.266-.195 3.247-.585.982-.391 1.824-.938 2.529-1.644.703-.705 1.25-1.55 1.641-2.533.39-.983.583-2.067.583-3.253V7.122h-2.854v3.985c0 .75-.131 1.441-.393 2.072-.262.63-.626 1.173-1.09 1.631-.465.457-1.023.814-1.674 1.07-.614.24-1.277.363-1.989.377v2.865zM2.225 16.893c.705.706 1.547 1.253 2.528 1.644.982.39 2.064.585 3.247.585v-2.865c-.712-.014-1.375-.137-1.988-.377-.652-.256-1.21-.613-1.674-1.07-.465-.458-.828-1.001-1.09-1.632-.262-.63-.394-1.321-.394-2.071V7.122H0v3.985c0 1.186.195 2.27.583 3.253.39.983.938 1.828 1.642 2.533z"/>
        <path d="M8 .122c-1.183 0-2.265.196-3.247.585-.98.39-1.823.938-2.528 1.644-.704.705-1.251 1.55-1.642 2.534C.195 5.867 0 6.95 0 8.138v3.984h2.854V8.138c0-.75.132-1.442.394-2.072.262-.63.625-1.174 1.09-1.632.464-.457 1.022-.814 1.674-1.07.613-.24 1.276-.362 1.988-.377V.122z"/>
    </g>
    <defs>
        <clipPath id="prefix__clip0">
            <path fill="#fff" d="M0 19.122V0h18v19.122H0z"/>
        </clipPath>
    </defs>
</svg>
