<svg width="164" height="17" viewBox="0 0 164 17" fill="none" xmlns="http://www.w3.org/2000/svg">
<g clip-path="url(#clip0)">
<path d="M97.0513 15.1915H94.5071V4.9664L89.5624 15.1915H86.9157L81.9709 4.92475V15.1915H79.4268V1.53027H83.0378L88.2493 12.2551L93.4402 1.53027H97.0513V15.1915Z" fill="#FF0000"/>
<path d="M133.076 1.53027H135.641V15.1915H133.076V1.53027Z" fill="#FF0000"/>
<path d="M137.986 1.53027H140.551V12.8591H150.071V15.1915H137.986V1.53027Z" fill="#FF0000"/>
<path fill-rule="evenodd" clip-rule="evenodd" d="M108.267 1.56743C107.953 1.54266 107.63 1.53027 107.299 1.53027C105.71 1.53027 104.315 1.81488 103.113 2.3841C101.911 2.95331 100.986 3.76549 100.336 4.82062C99.8138 5.67004 99.5015 6.63192 99.3996 7.70627H102.044C102.186 6.64583 102.633 5.79501 103.382 5.15382C104.308 4.34859 105.613 3.94597 107.299 3.94597C107.637 3.94597 107.96 3.96219 108.267 3.99463V1.56743ZM110.043 4.43364V1.86385C110.545 1.99725 111.018 2.17067 111.464 2.3841C112.665 2.95331 113.591 3.76549 114.24 4.82062C114.89 5.87576 115.214 7.10443 115.214 8.50665V8.73572C115.214 10.1379 114.89 11.3666 114.24 12.4217C113.591 13.463 112.672 14.2682 111.484 14.8374C110.296 15.4067 108.901 15.6913 107.299 15.6913C105.696 15.6913 104.294 15.4067 103.092 14.8374C101.904 14.2682 100.986 13.463 100.336 12.4217C99.8066 11.5605 99.4929 10.5837 99.3955 9.49127H102.036C102.168 10.5823 102.617 11.455 103.382 12.1094C104.308 12.8868 105.613 13.2756 107.299 13.2756C108.984 13.2756 110.283 12.8868 111.194 12.1094C112.12 11.318 112.583 10.2074 112.583 8.77737V8.48582C112.583 7.05584 112.12 5.94517 111.194 5.15382C110.862 4.86024 110.478 4.62018 110.043 4.43364Z" fill="#FF0000"/>
<path fill-rule="evenodd" clip-rule="evenodd" d="M120.01 1.53027H117.56V15.1915H120.01V1.53027ZM121.769 15.1915H125.828C126.813 15.1915 127.675 15.0318 128.413 14.7125C129.152 14.3932 129.72 13.942 130.116 13.3589C130.527 12.7758 130.732 12.0955 130.732 11.318V11.0889C130.732 10.4087 130.561 9.82556 130.219 9.33965C129.877 8.83985 129.385 8.45112 128.742 8.17345C129.781 7.50705 130.301 6.5491 130.301 5.2996V5.07052C130.301 3.94597 129.87 3.07827 129.008 2.4674C128.16 1.84265 126.963 1.53027 125.418 1.53027H121.769V3.86267H125.418C126.156 3.86267 126.717 3.99457 127.1 4.25835C127.497 4.50825 127.695 4.8831 127.695 5.3829V5.61197C127.695 6.12566 127.504 6.50745 127.121 6.75735C126.751 7.00725 126.177 7.1322 125.397 7.1322H121.769V9.4646H125.787C126.58 9.4646 127.169 9.59649 127.552 9.86027C127.935 10.1102 128.126 10.492 128.126 11.0056V11.2347C128.126 11.7484 127.921 12.151 127.511 12.4426C127.1 12.7202 126.526 12.8591 125.787 12.8591H121.769V15.1915Z" fill="#FF0000"/>
<path fill-rule="evenodd" clip-rule="evenodd" d="M154.975 1.53027H152.416V15.1915H154.975V1.53027ZM156.734 15.1915H164.132V12.8591H156.734V15.1915ZM156.734 9.50625H163.721V7.17385H156.734V9.50625ZM156.734 3.86267H164.132V1.53027H156.734V3.86267Z" fill="#FF0000"/>
<path d="M6.54517 15.6913C4.34296 15.6913 2.6742 15.2956 1.53889 14.5042C0.40359 13.7129 -0.164062 12.5536 -0.164062 11.0265V10.839H2.40063V11.0265C2.40063 12.5814 3.82318 13.3589 6.66828 13.3589C7.89933 13.3589 8.8363 13.2131 9.47918 12.9215C10.1357 12.63 10.464 12.2066 10.464 11.6512V11.5054C10.464 11.0195 10.2725 10.6586 9.88953 10.4225C9.50654 10.1865 8.80894 9.99911 7.79674 9.86027L4.55497 9.40212C1.58677 8.98562 0.102666 7.76389 0.102666 5.73692V5.52867C0.102666 4.27917 0.642961 3.3004 1.72355 2.59235C2.81782 1.8843 4.35664 1.53027 6.34 1.53027C8.43279 1.53027 10.0263 1.91207 11.1206 2.67565C12.2285 3.43923 12.7825 4.5499 12.7825 6.00765V6.19507H10.2178V6.00765C10.2178 4.57767 8.92521 3.86267 6.34 3.86267C5.16366 3.86267 4.26089 4.00151 3.63168 4.27917C3.01616 4.55684 2.70839 4.95251 2.70839 5.4662V5.6328C2.70839 6.0493 2.88621 6.36862 3.24185 6.59075C3.61117 6.799 4.24721 6.9656 5.14998 7.09055L8.41227 7.5487C10.0126 7.77083 11.189 8.19427 11.9413 8.81902C12.6936 9.42989 13.0698 10.2837 13.0698 11.3805V11.5887C13.0698 12.8799 12.5021 13.8864 11.3668 14.6084C10.2315 15.3303 8.62428 15.6913 6.54517 15.6913Z" fill="black"/>
<path fill-rule="evenodd" clip-rule="evenodd" d="M39.3341 1.56743C39.0202 1.54266 38.6975 1.53027 38.3661 1.53027C36.7775 1.53027 35.3823 1.81488 34.1805 2.3841C32.9787 2.95331 32.0531 3.76549 31.4039 4.82062C30.8812 5.67004 30.5689 6.63192 30.467 7.70627H33.1115C33.2538 6.64583 33.7 5.79501 34.4499 5.15382C35.3754 4.34859 36.6808 3.94597 38.3661 3.94597C38.7044 3.94597 39.027 3.96219 39.3341 3.99463V1.56743ZM41.1102 4.43364V1.86384C41.612 1.99725 42.0856 2.17067 42.531 2.3841C43.7329 2.95331 44.6584 3.76549 45.3077 4.82062C45.9569 5.87576 46.2815 7.10443 46.2815 8.50665V8.73572C46.2815 10.1379 45.9569 11.3666 45.3077 12.4217C44.6584 13.463 43.7398 14.2682 42.5518 14.8374C41.3638 15.4067 39.9686 15.6913 38.3661 15.6913C36.7637 15.6913 35.3616 15.4067 34.1598 14.8374C32.9718 14.2682 32.0531 13.463 31.4039 12.4217C30.8739 11.5605 30.5603 10.5837 30.4629 9.49127H33.1032C33.2356 10.5823 33.6845 11.455 34.4499 12.1094C35.3754 12.8868 36.6808 13.2756 38.3661 13.2756C40.0514 13.2756 41.35 12.8868 42.2617 12.1094C43.1872 11.318 43.65 10.2074 43.65 8.77737V8.48582C43.65 7.05584 43.1872 5.94517 42.2617 5.15382C41.9293 4.86024 41.5455 4.62018 41.1102 4.43364Z" fill="black"/>
<path fill-rule="evenodd" clip-rule="evenodd" d="M65.9619 1.53027H63.4482V15.1915H65.9619V1.53027ZM67.7305 9.27873L72.8995 15.1915H76.0182V14.7958L69.6988 7.56952L76.2644 1.92595V1.53027H72.838L67.7305 6.5796V9.27873Z" fill="black"/>
<path fill-rule="evenodd" clip-rule="evenodd" d="M50.6879 1.53027H48.1553V15.1915H50.6879V1.53027ZM52.4677 10.1935H54.1669L58.5577 15.1915H61.5122V14.7958L57.4497 10.1518C58.7492 10.013 59.7614 9.58261 60.4863 8.86067C61.2113 8.12486 61.5737 7.20162 61.5737 6.09095V5.84105C61.5737 4.50825 61.1292 3.46006 60.2401 2.69647C59.351 1.91901 58.1268 1.53027 56.5675 1.53027H52.4677V3.86267H56.5059C57.2993 3.86267 57.9079 4.02927 58.332 4.36247C58.756 4.68179 58.968 5.13994 58.968 5.73692V5.98682C58.968 6.59769 58.756 7.06972 58.332 7.40292C57.9079 7.72224 57.2993 7.8819 56.5059 7.8819H52.4677V10.1935Z" fill="black"/>
<path fill-rule="evenodd" clip-rule="evenodd" d="M14.9443 3.86267H20.4841V3.86625H23.0488V3.86267H28.5885V1.53027H14.9443V3.86267ZM23.0488 5.65397H20.4841V15.1915H23.0488V5.65397Z" fill="black"/>
</g>
<defs>
<clipPath id="clip0">
<rect width="164" height="17" fill="white"/>
</clipPath>
</defs>
</svg>
